<svg width="48" height="48" viewBox="0 0 48 48" fill="none" xmlns="http://www.w3.org/2000/svg">
<rect width="48" height="48" fill="white"/>
<path d="M24 17.9999V25.9999M24 33.9999H24.02M20.58 7.71992L3.64004 35.9999C3.29078 36.6048 3.10598 37.2905 3.10402 37.989C3.10206 38.6874 3.28302 39.3742 3.62889 39.981C3.97477 40.5878 4.47349 41.0934 5.07546 41.4476C5.67742 41.8018 6.36164 41.9922 7.06004 41.9999H40.94C41.6384 41.9922 42.3227 41.8018 42.9246 41.4476C43.5266 41.0934 44.0253 40.5878 44.3712 39.981C44.7171 39.3742 44.898 38.6874 44.8961 37.989C44.8941 37.2905 44.7093 36.6048 44.36 35.9999L27.42 7.71992C27.0635 7.13213 26.5615 6.64616 25.9624 6.30889C25.3634 5.97162 24.6875 5.79443 24 5.79443C23.3126 5.79443 22.6367 5.97162 22.0377 6.30889C21.4386 6.64616 20.9366 7.13213 20.58 7.71992Z" stroke="#1E1E1E" stroke-width="4" stroke-linecap="round" stroke-linejoin="round"/>
</svg>
